# xmcd
#
# Track frame offsets:
#  150
#  11922
#  25575
#  40707
#  55695
#  74827
#  90205
#  100777
#  114892
#  136695
#  150230
#  165365
#  192572
#  207287
#  227860
#  243237
#  259517
#
# Disc length: 3675 seconds
#
# Revision: 0
# Processed by: cddbd v1.5PL3 Copyright (c) Steve Scherf et al.
# Submitted via: AltoMP3_Maker 3.0
#
DISCID=ca0e5911
DTITLE=arvanitakh - ektos programmatos
DYEAR=1900
DGENRE=
TTITLE0=1000 bradies
TTITLE1=h zwh mou olh
TTITLE2=istoria mou
TTITLE3=shkw xorepse koukli mou
TTITLE4=ti h8ela kai s agapousa
TTITLE5=mavro mou xelidoni klp
TTITLE6=xorepsete
TTITLE7=h trata mas h kourelou
TTITLE8=tzibaeri
TTITLE9=mes toy aigaiou ta nera
TTITLE10=mhlo mou and mantarini
TTITLE11=sths pikrodafnhs ton an8o klp
TTITLE12=amarantos
TTITLE13=parapono
TTITLE14=ths 3enitias
TTITLE15=den 8a 3anagaphsw
TTITLE16=ths gynaikas h kardia
EXTD=
EXTT0=
EXTT1=
EXTT2=
EXTT3=
EXTT4=
EXTT5=
EXTT6=
EXTT7=
EXTT8=
EXTT9=
EXTT10=
EXTT11=
EXTT12=
EXTT13=
EXTT14=
EXTT15=
EXTT16=
PLAYORDER=
